<svg id="visual" viewBox="0 0 1080 100" width="1080" height="100" xmlns="http://www.w3.org/2000/svg" xmlns:xlink="http://www.w3.org/1999/xlink" version="1.1"><rect x="0" y="0" width="1080" height="100" fill="#0D3B66"></rect><path d="M0 39L13.8 39.5C27.7 40 55.3 41 83 38.8C110.7 36.7 138.3 31.3 166 30.2C193.7 29 221.3 32 249 32.8C276.7 33.7 304.3 32.3 332 30C359.7 27.7 387.3 24.3 415 23.3C442.7 22.3 470.3 23.7 498.2 26C526 28.3 554 31.7 581.8 34C609.7 36.3 637.3 37.7 665 35.7C692.7 33.7 720.3 28.3 748 27.7C775.7 27 803.3 31 831 34C858.7 37 886.3 39 914 38.8C941.7 38.7 969.3 36.3 997 33.8C1024.7 31.3 1052.3 28.7 1066.2 27.3L1080 26L1080 101L1066.2 101C1052.3 101 1024.7 101 997 101C969.3 101 941.7 101 914 101C886.3 101 858.7 101 831 101C803.3 101 775.7 101 748 101C720.3 101 692.7 101 665 101C637.3 101 609.7 101 581.8 101C554 101 526 101 498.2 101C470.3 101 442.7 101 415 101C387.3 101 359.7 101 332 101C304.3 101 276.7 101 249 101C221.3 101 193.7 101 166 101C138.3 101 110.7 101 83 101C55.3 101 27.7 101 13.8 101L0 101Z" fill="#ffd24c"></path><path d="M0 46L13.8 46C27.7 46 55.3 46 83 46.2C110.7 46.3 138.3 46.7 166 47C193.7 47.3 221.3 47.7 249 49.5C276.7 51.3 304.3 54.7 332 56.5C359.7 58.3 387.3 58.7 415 55.8C442.7 53 470.3 47 498.2 44.2C526 41.3 554 41.7 581.8 42.8C609.7 44 637.3 46 665 46.8C692.7 47.7 720.3 47.3 748 46.8C775.7 46.3 803.3 45.7 831 45.2C858.7 44.7 886.3 44.3 914 46.3C941.7 48.3 969.3 52.7 997 54.7C1024.7 56.7 1052.3 56.3 1066.2 56.2L1080 56L1080 101L1066.2 101C1052.3 101 1024.7 101 997 101C969.3 101 941.7 101 914 101C886.3 101 858.7 101 831 101C803.3 101 775.7 101 748 101C720.3 101 692.7 101 665 101C637.3 101 609.7 101 581.8 101C554 101 526 101 498.2 101C470.3 101 442.7 101 415 101C387.3 101 359.7 101 332 101C304.3 101 276.7 101 249 101C221.3 101 193.7 101 166 101C138.3 101 110.7 101 83 101C55.3 101 27.7 101 13.8 101L0 101Z" fill="#b19342"></path><path d="M0 68L13.8 66.2C27.7 64.3 55.3 60.7 83 61.7C110.7 62.7 138.3 68.3 166 69C193.7 69.7 221.3 65.3 249 63.2C276.7 61 304.3 61 332 60.7C359.7 60.3 387.3 59.7 415 59C442.7 58.3 470.3 57.7 498.2 59.2C526 60.7 554 64.3 581.8 65.5C609.7 66.7 637.3 65.3 665 65.3C692.7 65.3 720.3 66.7 748 66.3C775.7 66 803.3 64 831 62.7C858.7 61.3 886.3 60.7 914 60.2C941.7 59.7 969.3 59.3 997 59.5C1024.7 59.7 1052.3 60.3 1066.2 60.7L1080 61L1080 101L1066.2 101C1052.3 101 1024.7 101 997 101C969.3 101 941.7 101 914 101C886.3 101 858.7 101 831 101C803.3 101 775.7 101 748 101C720.3 101 692.7 101 665 101C637.3 101 609.7 101 581.8 101C554 101 526 101 498.2 101C470.3 101 442.7 101 415 101C387.3 101 359.7 101 332 101C304.3 101 276.7 101 249 101C221.3 101 193.7 101 166 101C138.3 101 110.7 101 83 101C55.3 101 27.7 101 13.8 101L0 101Z" fill="#685935"></path><path d="M0 77L13.8 79C27.7 81 55.3 85 83 85.7C110.7 86.3 138.3 83.7 166 81C193.7 78.3 221.3 75.7 249 77C276.7 78.3 304.3 83.7 332 84.3C359.7 85 387.3 81 415 80.7C442.7 80.3 470.3 83.7 498.2 85.7C526 87.7 554 88.3 581.8 87.2C609.7 86 637.3 83 665 83.2C692.7 83.3 720.3 86.7 748 88.2C775.7 89.7 803.3 89.3 831 87.8C858.7 86.3 886.3 83.7 914 81C941.7 78.3 969.3 75.7 997 74.8C1024.7 74 1052.3 75 1066.2 75.5L1080 76L1080 101L1066.2 101C1052.3 101 1024.7 101 997 101C969.3 101 941.7 101 914 101C886.3 101 858.7 101 831 101C803.3 101 775.7 101 748 101C720.3 101 692.7 101 665 101C637.3 101 609.7 101 581.8 101C554 101 526 101 498.2 101C470.3 101 442.7 101 415 101C387.3 101 359.7 101 332 101C304.3 101 276.7 101 249 101C221.3 101 193.7 101 166 101C138.3 101 110.7 101 83 101C55.3 101 27.7 101 13.8 101L0 101Z" fill="#252525"></path></svg>