<svg id="visual" xmlns="http://www.w3.org/2000/svg" viewBox="0 0 900 599"><defs><style>.cls-1{fill:#fffaf7;}.cls-2{fill:#fff9f5;}.cls-3{fill:#fff3ea;}.cls-4{fill:#ffe7d5;}.cls-5{fill:#ffe5d1;}</style></defs><path class="cls-1" d="M0,101l11.5,36C23,173,46,245,69,249s46-60,69.2-83,46.5-5,69.6,11S254,207,277,192s46-59,69-30,46,131,69.2,136,46.5-87,69.6-122S531,163,554,194s46,71,69,56,46-85,69.2-98,46.5,31,69.6,45,46.2-2,69.2-23,46-47,57.5-60L900,101V52H0Z"/><path class="cls-2" d="M0,257l11.5,21C23,299,46,341,69,344s46-33,69.2-34,46.5,33,69.6,43,46.2-4,69.2-21,46-37,69-18,46,77,69.2,81,46.5-46,69.6-52S531,375,554,387s46-2,69-17,46-31,69.2-30,46.5,19,69.6,28,46.2,9,69.2,5,46-12,57.5-16l11.5-4V99l-11.5,13C877,125,854,151,831,172s-46,37-69.2,23-46.5-58-69.6-45S646,233,623,248s-46-25-69-56-46-53-69.2-18-46.5,127-69.6,122S369,189,346,160s-46,15-69,30-46,1-69.2-15-46.5-34-69.6-11S92,251,69,247,23,171,11.5,135L0,99Z"/><path class="cls-3" d="M0,299l11.5,16C23,331,46,363,69,365s46-26,69.2-27,46.5,25,69.6,34,46.2,1,69.2-11,46-28,69-12,46,64,69.2,63,46.5-51,69.6-58S531,383,554,400s46,15,69,1,46-40,69.2-38,46.5,32,69.6,44,46.2,6,69.2,4,46,0,57.5,1l11.5,1V351l-11.5,4C877,359,854,367,831,371s-46,4-69.2-5-46.5-27-69.6-28S646,353,623,368s-46,29-69,17-46-50-69.2-44-46.5,56-69.6,52S369,331,346,312s-46,1-69,18-46,31-69.2,21-46.5-44-69.6-43S92,345,69,342s-46-45-57.5-66L0,255Z"/><path class="cls-4" d="M0,347l11.5,14C23,375,46,403,69,407s46-16,69.2-17,46.5,17,69.6,25,46.2,6,69.2-5,46-31,69-16,46,65,69.2,64,46.5-53,69.6-61S531,425,554,437s46,0,69-19,46-45,69.2-42,46.5,35,69.6,55S808,459,831,460s46-5,57.5-8l11.5-3V411l-11.5-1c-11.5-1-34.5-3-57.5-1s-46,8-69.2-4-46.5-42-69.6-44S646,385,623,399s-46,16-69-1-46-53-69.2-46-46.5,57-69.6,58S369,363,346,347s-46,0-69,12-46,20-69.2,11-46.5-35-69.6-34S92,365,69,363s-46-34-57.5-50L0,297Z"/><path class="cls-5" d="M0,407l11.5,11C23,429,46,451,69,456s46-7,69.2-12,46.5-3,69.6,5S254,471,277,462s46-41,69-28,46,71,69.2,75,46.5-46,69.6-59S531,461,554,472s46,9,69-13,46-64,69.2-69,46.5,27,69.6,48S808,469,831,472s46-1,57.5-3l11.5-2V447l-11.5,3c-11.5,3-34.5,9-57.5,8s-46-9-69.2-29-46.5-52-69.6-55S646,397,623,416s-46,31-69,19-46-48-69.2-40-46.5,60-69.6,61S369,407,346,392s-46,5-69,16-46,13-69.2,5-46.5-26-69.6-25S92,409,69,405s-46-32-57.5-46L0,345Z"/><path class="cls-4" d="M0,449l11.5,17C23,483,46,517,69,522s46-19,69.2-31,46.5-12,69.6,0S254,527,277,523s46-36,69-33,46,41,69.2,36,46.5-53,69.6-57S531,505,554,518s46-1,69-29,46-70,69.2-71,46.5,39,69.6,69S808,537,831,536s46-23,57.5-34L900,491V465l-11.5,2c-11.5,2-34.5,6-57.5,3s-46-13-69.2-34-46.5-53-69.6-48S646,435,623,457s-46,24-69,13-46-35-69.2-22-46.5,63-69.6,59S369,445,346,432s-46,19-69,28-46-5-69.2-13-46.5-10-69.6-5S92,459,69,454s-46-27-57.5-38L0,405Z"/><path class="cls-3" d="M0,503l11.5,12C23,527,46,551,69,553s46-18,69.2-31,46.5-19,69.6-4S254,569,277,572s46-27,69-30,46,21,69.2,12,46.5-51,69.6-56S531,525,554,549s46,40,69,21,46-73,69.2-79,46.5,36,69.6,59S808,577,831,567s46-34,57.5-46L900,509V489l-11.5,11C877,511,854,533,831,534s-46-19-69.2-49-46.5-70-69.6-69S646,459,623,487s-46,42-69,29-46-53-69.2-49-46.5,52-69.6,57S369,491,346,488s-46,29-69,33-46-20-69.2-32-46.5-12-69.6,0S92,525,69,520s-46-39-57.5-56L0,447Z"/><path class="cls-2" d="M0,509l11.5,16C23,541,46,573,69,581s46-8,69.2-24,46.5-32,69.6-21S254,585,277,592s46-17,69-22,46,9,69.2,2,46.5-35,69.6-36S531,561,554,578s46,25,69,16,46-35,69.2-39,46.5,14,69.6,30S808,615,831,604s46-47,57.5-65L900,521V507l-11.5,12C877,531,854,555,831,565s-46,6-69.2-17-46.5-65-69.6-59S646,549,623,568s-46,3-69-21-46-56-69.2-51-46.5,47-69.6,56S369,537,346,540s-46,33-69,30-46-39-69.2-54-46.5-9-69.6,4S92,553,69,551s-46-26-57.5-38L0,501Z"/><path class="cls-1" d="M0,653H900V519l-11.5,18C877,555,854,591,831,602s-46-3-69.2-19-46.5-34-69.6-30S646,583,623,592s-46,1-69-16-46-43-69.2-42-46.5,29-69.6,36-46.2-7-69.2-2-46,29-69,22-46-45-69.2-56-46.5,5-69.6,21S92,587,69,579s-46-40-57.5-56L0,507Z"/><path class="cls-1" d="M0,42,11.5,72.85C23,103.71,46,165.42,69,168.85s46-51.43,69.2-71.14,46.5-4.29,69.6,9.43S254,132.85,277,120s46-50.57,69-25.71,46,112.28,69.2,116.57,46.5-74.57,69.6-104.57S531,95.14,554,121.71s46,60.85,69,48,46-72.85,69.2-84,46.5,26.57,69.6,38.57,46.2-1.72,69.2-19.71,46-40.29,57.5-51.43L900,42V0H0Z"/></svg>