<svg id="visual" viewBox="0 0 900 600" width="900" height="600" xmlns="http://www.w3.org/2000/svg" xmlns:xlink="http://www.w3.org/1999/xlink" version="1.1"><path d="M0 49L11.5 85C23 121 46 193 69 197C92 201 115 137 138.2 114C161.3 91 184.7 109 207.8 125C231 141 254 155 277 140C300 125 323 81 346 110C369 139 392 241 415.2 246C438.3 251 461.7 159 484.8 124C508 89 531 111 554 142C577 173 600 213 623 198C646 183 669 113 692.2 100C715.3 87 738.7 131 761.8 145C785 159 808 143 831 122C854 101 877 75 888.5 62L900 49L900 0L888.5 0C877 0 854 0 831 0C808 0 785 0 761.8 0C738.7 0 715.3 0 692.2 0C669 0 646 0 623 0C600 0 577 0 554 0C531 0 508 0 484.8 0C461.7 0 438.3 0 415.2 0C392 0 369 0 346 0C323 0 300 0 277 0C254 0 231 0 207.8 0C184.7 0 161.3 0 138.2 0C115 0 92 0 69 0C46 0 23 0 11.5 0L0 0Z" fill="#fffaf7"></path><path d="M0 205L11.5 226C23 247 46 289 69 292C92 295 115 259 138.2 258C161.3 257 184.7 291 207.8 301C231 311 254 297 277 280C300 263 323 243 346 262C369 281 392 339 415.2 343C438.3 347 461.7 297 484.8 291C508 285 531 323 554 335C577 347 600 333 623 318C646 303 669 287 692.2 288C715.3 289 738.7 307 761.8 316C785 325 808 325 831 321C854 317 877 309 888.5 305L900 301L900 47L888.5 60C877 73 854 99 831 120C808 141 785 157 761.8 143C738.7 129 715.3 85 692.2 98C669 111 646 181 623 196C600 211 577 171 554 140C531 109 508 87 484.8 122C461.7 157 438.3 249 415.2 244C392 239 369 137 346 108C323 79 300 123 277 138C254 153 231 139 207.8 123C184.7 107 161.3 89 138.2 112C115 135 92 199 69 195C46 191 23 119 11.5 83L0 47Z" fill="#fff9f5"></path><path d="M0 247L11.5 263C23 279 46 311 69 313C92 315 115 287 138.2 286C161.3 285 184.7 311 207.8 320C231 329 254 321 277 309C300 297 323 281 346 297C369 313 392 361 415.2 360C438.3 359 461.7 309 484.8 302C508 295 531 331 554 348C577 365 600 363 623 349C646 335 669 309 692.2 311C715.3 313 738.7 343 761.8 355C785 367 808 361 831 359C854 357 877 359 888.5 360L900 361L900 299L888.5 303C877 307 854 315 831 319C808 323 785 323 761.8 314C738.7 305 715.3 287 692.2 286C669 285 646 301 623 316C600 331 577 345 554 333C531 321 508 283 484.8 289C461.7 295 438.3 345 415.2 341C392 337 369 279 346 260C323 241 300 261 277 278C254 295 231 309 207.8 299C184.7 289 161.3 255 138.2 256C115 257 92 293 69 290C46 287 23 245 11.5 224L0 203Z" fill="#fff3ea"></path><path d="M0 295L11.5 309C23 323 46 351 69 355C92 359 115 339 138.2 338C161.3 337 184.7 355 207.8 363C231 371 254 369 277 358C300 347 323 327 346 342C369 357 392 407 415.2 406C438.3 405 461.7 353 484.8 345C508 337 531 373 554 385C577 397 600 385 623 366C646 347 669 321 692.2 324C715.3 327 738.7 359 761.8 379C785 399 808 407 831 408C854 409 877 403 888.5 400L900 397L900 359L888.5 358C877 357 854 355 831 357C808 359 785 365 761.8 353C738.7 341 715.3 311 692.2 309C669 307 646 333 623 347C600 361 577 363 554 346C531 329 508 293 484.8 300C461.7 307 438.3 357 415.2 358C392 359 369 311 346 295C323 279 300 295 277 307C254 319 231 327 207.8 318C184.7 309 161.3 283 138.2 284C115 285 92 313 69 311C46 309 23 277 11.5 261L0 245Z" fill="#ffe7d5"></path><path d="M0 355L11.5 366C23 377 46 399 69 404C92 409 115 397 138.2 392C161.3 387 184.7 389 207.8 397C231 405 254 419 277 410C300 401 323 369 346 382C369 395 392 453 415.2 457C438.3 461 461.7 411 484.8 398C508 385 531 409 554 420C577 431 600 429 623 407C646 385 669 343 692.2 338C715.3 333 738.7 365 761.8 386C785 407 808 417 831 420C854 423 877 419 888.5 417L900 415L900 395L888.5 398C877 401 854 407 831 406C808 405 785 397 761.8 377C738.7 357 715.3 325 692.2 322C669 319 646 345 623 364C600 383 577 395 554 383C531 371 508 335 484.8 343C461.7 351 438.3 403 415.2 404C392 405 369 355 346 340C323 325 300 345 277 356C254 367 231 369 207.8 361C184.7 353 161.3 335 138.2 336C115 337 92 357 69 353C46 349 23 321 11.5 307L0 293Z" fill="#ffe5d1"></path><path d="M0 397L11.5 414C23 431 46 465 69 470C92 475 115 451 138.2 439C161.3 427 184.7 427 207.8 439C231 451 254 475 277 471C300 467 323 435 346 438C369 441 392 479 415.2 474C438.3 469 461.7 421 484.8 417C508 413 531 453 554 466C577 479 600 465 623 437C646 409 669 367 692.2 366C715.3 365 738.7 405 761.8 435C785 465 808 485 831 484C854 483 877 461 888.5 450L900 439L900 413L888.5 415C877 417 854 421 831 418C808 415 785 405 761.8 384C738.7 363 715.3 331 692.2 336C669 341 646 383 623 405C600 427 577 429 554 418C531 407 508 383 484.8 396C461.7 409 438.3 459 415.2 455C392 451 369 393 346 380C323 367 300 399 277 408C254 417 231 403 207.8 395C184.7 387 161.3 385 138.2 390C115 395 92 407 69 402C46 397 23 375 11.5 364L0 353Z" fill="#ffe7d5"></path><path d="M0 451L11.5 463C23 475 46 499 69 501C92 503 115 483 138.2 470C161.3 457 184.7 451 207.8 466C231 481 254 517 277 520C300 523 323 493 346 490C369 487 392 511 415.2 502C438.3 493 461.7 451 484.8 446C508 441 531 473 554 497C577 521 600 537 623 518C646 499 669 445 692.2 439C715.3 433 738.7 475 761.8 498C785 521 808 525 831 515C854 505 877 481 888.5 469L900 457L900 437L888.5 448C877 459 854 481 831 482C808 483 785 463 761.8 433C738.7 403 715.3 363 692.2 364C669 365 646 407 623 435C600 463 577 477 554 464C531 451 508 411 484.8 415C461.7 419 438.3 467 415.2 472C392 477 369 439 346 436C323 433 300 465 277 469C254 473 231 449 207.8 437C184.7 425 161.3 425 138.2 437C115 449 92 473 69 468C46 463 23 429 11.5 412L0 395Z" fill="#fff3ea"></path><path d="M0 457L11.5 473C23 489 46 521 69 529C92 537 115 521 138.2 505C161.3 489 184.7 473 207.8 484C231 495 254 533 277 540C300 547 323 523 346 518C369 513 392 527 415.2 520C438.3 513 461.7 485 484.8 484C508 483 531 509 554 526C577 543 600 551 623 542C646 533 669 507 692.2 503C715.3 499 738.7 517 761.8 533C785 549 808 563 831 552C854 541 877 505 888.5 487L900 469L900 455L888.5 467C877 479 854 503 831 513C808 523 785 519 761.8 496C738.7 473 715.3 431 692.2 437C669 443 646 497 623 516C600 535 577 519 554 495C531 471 508 439 484.8 444C461.7 449 438.3 491 415.2 500C392 509 369 485 346 488C323 491 300 521 277 518C254 515 231 479 207.8 464C184.7 449 161.3 455 138.2 468C115 481 92 501 69 499C46 497 23 473 11.5 461L0 449Z" fill="#fff9f5"></path><path d="M0 601L11.5 601C23 601 46 601 69 601C92 601 115 601 138.2 601C161.3 601 184.7 601 207.8 601C231 601 254 601 277 601C300 601 323 601 346 601C369 601 392 601 415.2 601C438.3 601 461.7 601 484.8 601C508 601 531 601 554 601C577 601 600 601 623 601C646 601 669 601 692.2 601C715.3 601 738.7 601 761.8 601C785 601 808 601 831 601C854 601 877 601 888.5 601L900 601L900 467L888.5 485C877 503 854 539 831 550C808 561 785 547 761.8 531C738.7 515 715.3 497 692.2 501C669 505 646 531 623 540C600 549 577 541 554 524C531 507 508 481 484.8 482C461.7 483 438.3 511 415.2 518C392 525 369 511 346 516C323 521 300 545 277 538C254 531 231 493 207.8 482C184.7 471 161.3 487 138.2 503C115 519 92 535 69 527C46 519 23 487 11.5 471L0 455Z" fill="#fffaf7"></path></svg>