<svg id="visual" viewBox="0 0 1080 540" width="1080" height="540" xmlns="http://www.w3.org/2000/svg" xmlns:xlink="http://www.w3.org/1999/xlink" version="1.1"><path d="M0 93L36 95.7C72 98.3 144 103.7 216 104.5C288 105.3 360 101.7 432 110.7C504 119.7 576 141.3 648 143.2C720 145 792 127 864 115.3C936 103.7 1008 98.3 1044 95.7L1080 93L1080 0L1044 0C1008 0 936 0 864 0C792 0 720 0 648 0C576 0 504 0 432 0C360 0 288 0 216 0C144 0 72 0 36 0L0 0Z" fill="#ffffff"></path><path d="M0 141L36 140.2C72 139.3 144 137.7 216 137.7C288 137.7 360 139.3 432 149.2C504 159 576 177 648 177C720 177 792 159 864 146.5C936 134 1008 127 1044 123.5L1080 120L1080 91L1044 93.7C1008 96.3 936 101.7 864 113.3C792 125 720 143 648 141.2C576 139.3 504 117.7 432 108.7C360 99.7 288 103.3 216 102.5C144 101.7 72 96.3 36 93.7L0 91Z" fill="#9da8bd"></path><path d="M0 201L36 198.3C72 195.7 144 190.3 216 190.3C288 190.3 360 195.7 432 207.3C504 219 576 237 648 237C720 237 792 219 864 207.3C936 195.7 1008 190.3 1044 187.7L1080 185L1080 118L1044 121.5C1008 125 936 132 864 144.5C792 157 720 175 648 175C576 175 504 157 432 147.2C360 137.3 288 135.7 216 135.7C144 135.7 72 137.3 36 138.2L0 139Z" fill="#3e587e"></path><path d="M0 352L36 352.8C72 353.7 144 355.3 216 351.7C288 348 360 339 432 338.2C504 337.3 576 344.7 648 350.2C720 355.7 792 359.3 864 362C936 364.7 1008 366.3 1044 367.2L1080 368L1080 183L1044 185.7C1008 188.3 936 193.7 864 205.3C792 217 720 235 648 235C576 235 504 217 432 205.3C360 193.7 288 188.3 216 188.3C144 188.3 72 193.7 36 196.3L0 199Z" fill="#0d3b66"></path><path d="M0 433L36 432.2C72 431.3 144 429.7 216 424.3C288 419 360 410 432 407.2C504 404.3 576 407.7 648 412.2C720 416.7 792 422.3 864 427.8C936 433.3 1008 438.7 1044 441.3L1080 444L1080 366L1044 365.2C1008 364.3 936 362.7 864 360C792 357.3 720 353.7 648 348.2C576 342.7 504 335.3 432 336.2C360 337 288 346 216 349.7C144 353.3 72 351.7 36 350.8L0 350Z" fill="#3e587e"></path><path d="M0 465L36 466C72 467 144 469 216 465.5C288 462 360 453 432 450.3C504 447.7 576 451.3 648 457.7C720 464 792 473 864 477.5C936 482 1008 482 1044 482L1080 482L1080 442L1044 439.3C1008 436.7 936 431.3 864 425.8C792 420.3 720 414.7 648 410.2C576 405.7 504 402.3 432 405.2C360 408 288 417 216 422.3C144 427.7 72 429.3 36 430.2L0 431Z" fill="#9da8bd"></path><path d="M0 541L36 541C72 541 144 541 216 541C288 541 360 541 432 541C504 541 576 541 648 541C720 541 792 541 864 541C936 541 1008 541 1044 541L1080 541L1080 480L1044 480C1008 480 936 480 864 475.5C792 471 720 462 648 455.7C576 449.3 504 445.7 432 448.3C360 451 288 460 216 463.5C144 467 72 465 36 464L0 463Z" fill="#ffffff"></path></svg>