<svg id="visual" viewBox="0 0 1080 100" width="1080" height="100" xmlns="http://www.w3.org/2000/svg" xmlns:xlink="http://www.w3.org/1999/xlink" version="1.1"><path d="M0 12L16.3 14C32.7 16 65.3 20 98 21.8C130.7 23.7 163.3 23.3 196.2 23.8C229 24.3 262 25.7 294.8 24.2C327.7 22.7 360.3 18.3 393 16.2C425.7 14 458.3 14 491 14C523.7 14 556.3 14 589 15C621.7 16 654.3 18 687 18.3C719.7 18.7 752.3 17.3 785.2 16.5C818 15.7 851 15.3 883.8 16.7C916.7 18 949.3 21 982 21.7C1014.7 22.3 1047.3 20.7 1063.7 19.8L1080 19L1080 0L1063.7 0C1047.3 0 1014.7 0 982 0C949.3 0 916.7 0 883.8 0C851 0 818 0 785.2 0C752.3 0 719.7 0 687 0C654.3 0 621.7 0 589 0C556.3 0 523.7 0 491 0C458.3 0 425.7 0 393 0C360.3 0 327.7 0 294.8 0C262 0 229 0 196.2 0C163.3 0 130.7 0 98 0C65.3 0 32.7 0 16.3 0L0 0Z" fill="#ffffff"></path><path d="M0 28L16.3 33.2C32.7 38.3 65.3 48.7 98 53.3C130.7 58 163.3 57 196.2 54C229 51 262 46 294.8 47C327.7 48 360.3 55 393 57.2C425.7 59.3 458.3 56.7 491 55.3C523.7 54 556.3 54 589 54.8C621.7 55.7 654.3 57.3 687 55.3C719.7 53.3 752.3 47.7 785.2 44.7C818 41.7 851 41.3 883.8 41.8C916.7 42.3 949.3 43.7 982 48.5C1014.7 53.3 1047.3 61.7 1063.7 65.8L1080 70L1080 17L1063.7 17.8C1047.3 18.7 1014.7 20.3 982 19.7C949.3 19 916.7 16 883.8 14.7C851 13.3 818 13.7 785.2 14.5C752.3 15.3 719.7 16.7 687 16.3C654.3 16 621.7 14 589 13C556.3 12 523.7 12 491 12C458.3 12 425.7 12 393 14.2C360.3 16.3 327.7 20.7 294.8 22.2C262 23.7 229 22.3 196.2 21.8C163.3 21.3 130.7 21.7 98 19.8C65.3 18 32.7 14 16.3 12L0 10Z" fill="#c4cad7"></path><path d="M0 46L16.3 49.8C32.7 53.7 65.3 61.3 98 64.7C130.7 68 163.3 67 196.2 64.5C229 62 262 58 294.8 58.5C327.7 59 360.3 64 393 66.5C425.7 69 458.3 69 491 68.8C523.7 68.7 556.3 68.3 589 69.3C621.7 70.3 654.3 72.7 687 70.2C719.7 67.7 752.3 60.3 785.2 58C818 55.7 851 58.3 883.8 60.5C916.7 62.7 949.3 64.3 982 67.3C1014.7 70.3 1047.3 74.7 1063.7 76.8L1080 79L1080 68L1063.7 63.8C1047.3 59.7 1014.7 51.3 982 46.5C949.3 41.7 916.7 40.3 883.8 39.8C851 39.3 818 39.7 785.2 42.7C752.3 45.7 719.7 51.3 687 53.3C654.3 55.3 621.7 53.7 589 52.8C556.3 52 523.7 52 491 53.3C458.3 54.7 425.7 57.3 393 55.2C360.3 53 327.7 46 294.8 45C262 44 229 49 196.2 52C163.3 55 130.7 56 98 51.3C65.3 46.7 32.7 36.3 16.3 31.2L0 26Z" fill="#8a97b0"></path><path d="M0 89L16.3 88.7C32.7 88.3 65.3 87.7 98 87C130.7 86.3 163.3 85.7 196.2 85.8C229 86 262 87 294.8 88.3C327.7 89.7 360.3 91.3 393 92.3C425.7 93.3 458.3 93.7 491 92.3C523.7 91 556.3 88 589 87.8C621.7 87.7 654.3 90.3 687 91.5C719.7 92.7 752.3 92.3 785.2 91.2C818 90 851 88 883.8 87.5C916.7 87 949.3 88 982 89.5C1014.7 91 1047.3 93 1063.7 94L1080 95L1080 77L1063.7 74.8C1047.3 72.7 1014.7 68.3 982 65.3C949.3 62.3 916.7 60.7 883.8 58.5C851 56.3 818 53.7 785.2 56C752.3 58.3 719.7 65.7 687 68.2C654.3 70.7 621.7 68.3 589 67.3C556.3 66.3 523.7 66.7 491 66.8C458.3 67 425.7 67 393 64.5C360.3 62 327.7 57 294.8 56.5C262 56 229 60 196.2 62.5C163.3 65 130.7 66 98 62.7C65.3 59.3 32.7 51.7 16.3 47.8L0 44Z" fill="#51678a"></path><path d="M0 101L16.3 101C32.7 101 65.3 101 98 101C130.7 101 163.3 101 196.2 101C229 101 262 101 294.8 101C327.7 101 360.3 101 393 101C425.7 101 458.3 101 491 101C523.7 101 556.3 101 589 101C621.7 101 654.3 101 687 101C719.7 101 752.3 101 785.2 101C818 101 851 101 883.8 101C916.7 101 949.3 101 982 101C1014.7 101 1047.3 101 1063.7 101L1080 101L1080 93L1063.7 92C1047.3 91 1014.7 89 982 87.5C949.3 86 916.7 85 883.8 85.5C851 86 818 88 785.2 89.2C752.3 90.3 719.7 90.7 687 89.5C654.3 88.3 621.7 85.7 589 85.8C556.3 86 523.7 89 491 90.3C458.3 91.7 425.7 91.3 393 90.3C360.3 89.3 327.7 87.7 294.8 86.3C262 85 229 84 196.2 83.8C163.3 83.7 130.7 84.3 98 85C65.3 85.7 32.7 86.3 16.3 86.7L0 87Z" fill="#0d3b66"></path></svg>