<svg id="visual" viewBox="0 0 1080 60" width="1080" height="60" xmlns="http://www.w3.org/2000/svg" xmlns:xlink="http://www.w3.org/1999/xlink" version="1.1"><rect x="0" y="0" width="1080" height="60" fill="#FFF8F3"></rect><path d="M0 50L22.5 46.7C45 43.3 90 36.7 135 37.7C180 38.7 225 47.3 270 51.7C315 56 360 56 405 52C450 48 495 40 540 38.8C585 37.7 630 43.3 675 42.8C720 42.3 765 35.7 810 32.7C855 29.7 900 30.3 945 34.8C990 39.3 1035 47.7 1057.5 51.8L1080 56L1080 61L1057.5 61C1035 61 990 61 945 61C900 61 855 61 810 61C765 61 720 61 675 61C630 61 585 61 540 61C495 61 450 61 405 61C360 61 315 61 270 61C225 61 180 61 135 61C90 61 45 61 22.5 61L0 61Z" fill="#001D3D" stroke-linecap="round" stroke-linejoin="miter"></path></svg>